<?xml version="1.0" encoding="UTF-8" standalone="no"?>
<!DOCTYPE svg PUBLIC "-//W3C//DTD SVG 1.1//EN"
 "http://www.w3.org/Graphics/SVG/1.1/DTD/svg11.dtd">
<!-- Generated by graphviz version 2.38.0 (20140413.2041)
 -->
<!-- Title: CarCrashWorkflowGraph Pages: 1 -->
<svg width="349pt" height="409pt"
 viewBox="0.00 0.00 349.00 409.00" xmlns="http://www.w3.org/2000/svg" xmlns:xlink="http://www.w3.org/1999/xlink">
<g id="graph0" class="graph" transform="scale(1 1) rotate(0) translate(4 405)">
<title>CarCrashWorkflowGraph</title>
<polygon fill="white" stroke="none" points="-4,4 -4,-405 345,-405 345,4 -4,4"/>
<!-- Start -->
<!-- Commits a new: CarCrashState -->
<g id="node1" class="node"><title>Start</title>
<polygon fill="none" stroke="black" points="197.5,-401 143.5,-401 143.5,-365 197.5,-365 197.5,-401"/>
<text text-anchor="middle" x="170.5" y="-379.3" font-family="Times,serif" font-size="14.00">Start</text>
</g>
<!-- Submitted -->
<g id="node2" class="node"><title>Submitted</title>
<polygon fill="none" stroke="black" points="287,-314 54,-314 54,-278 287,-278 287,-314"/>
<text text-anchor="middle" x="170.5" y="-292.3" font-family="Times,serif" font-size="14.00">Updates: CarCrashState::timeProcessed</text>
</g>
<!-- Start&#45;&gt;Submitted -->
<g id="edge1" class="edge"><title>Start&#45;&gt;Submitted</title>
<path fill="none" stroke="black" d="M170.5,-364.799C170.5,-353.163 170.5,-337.548 170.5,-324.237"/>
<polygon fill="black" stroke="black" points="174,-324.175 170.5,-314.175 167,-324.175 174,-324.175"/>
<text text-anchor="middle" x="204.5" y="-335.8" font-family="Times,serif" font-size="14.00"> &#160;&#160;Submitted</text>
</g>
<!-- Investigated -->
<g id="node3" class="node"><title>Investigated</title>
<polygon fill="none" stroke="black" points="291,-227 50,-227 50,-191 291,-191 291,-227"/>
<text text-anchor="middle" x="170.5" y="-205.3" font-family="Times,serif" font-size="14.00">Attaches file to: CarCrashState::evidence</text>
</g>
<!-- Submitted&#45;&gt;Investigated -->
<g id="edge2" class="edge"><title>Submitted&#45;&gt;Investigated</title>
<path fill="none" stroke="black" d="M170.5,-277.799C170.5,-266.163 170.5,-250.548 170.5,-237.237"/>
<polygon fill="black" stroke="black" points="174,-237.175 170.5,-227.175 167,-237.175 174,-237.175"/>
<text text-anchor="middle" x="209.5" y="-248.8" font-family="Times,serif" font-size="14.00"> &#160;&#160;Investigated</text>
</g>
<!-- Adjudicated -->
<g id="node4" class="node"><title>Adjudicated</title>
<polygon fill="none" stroke="black" points="293.5,-140 47.5,-140 47.5,-104 293.5,-104 293.5,-140"/>
<text text-anchor="middle" x="170.5" y="-118.3" font-family="Times,serif" font-size="14.00">Updates: CarCrashState::amountAccepted</text>
</g>
<!-- Investigated&#45;&gt;Adjudicated -->
<g id="edge3" class="edge"><title>Investigated&#45;&gt;Adjudicated</title>
<path fill="none" stroke="black" d="M170.5,-190.799C170.5,-179.163 170.5,-163.548 170.5,-150.237"/>
<polygon fill="black" stroke="black" points="174,-150.175 170.5,-140.175 167,-150.175 174,-150.175"/>
<text text-anchor="middle" x="209.5" y="-161.8" font-family="Times,serif" font-size="14.00"> &#160;&#160;Adjudicated</text>
</g>
<!-- Payment -->
<g id="node5" class="node"><title>Payment</title>
<polygon fill="none" stroke="black" points="341,-53 0,-53 0,-0 341,-0 341,-53"/>
<text text-anchor="middle" x="170.5" y="-37.8" font-family="Times,serif" font-size="14.00">Updates: CarCrashState::timeSettled</text>
<text text-anchor="middle" x="170.5" y="-22.8" font-family="Times,serif" font-size="14.00">and generates a cash movement to CarCrashState::claimant</text>
<text text-anchor="middle" x="170.5" y="-7.8" font-family="Times,serif" font-size="14.00">for amount CarCrashState::amountAccepted</text>
</g>
<!-- Adjudicated&#45;&gt;Payment -->
<g id="edge4" class="edge"><title>Adjudicated&#45;&gt;Payment</title>
<path fill="none" stroke="black" d="M170.5,-103.851C170.5,-92.5076 170.5,-77.2151 170.5,-63.2954"/>
<polygon fill="black" stroke="black" points="174,-63.0068 170.5,-53.0068 167,-63.0068 174,-63.0068"/>
<text text-anchor="middle" x="200.5" y="-74.8" font-family="Times,serif" font-size="14.00"> &#160;&#160;Payment</text>
</g>
</g>
</svg>
