<?xml version="1.0" encoding="UTF-8" standalone="no"?>
<!DOCTYPE svg PUBLIC "-//W3C//DTD SVG 1.1//EN"
 "http://www.w3.org/Graphics/SVG/1.1/DTD/svg11.dtd">
<!-- Generated by graphviz version 2.38.0 (20140413.2041)
 -->
<!-- Title: FileUploadAndCheckGraph Pages: 1 -->
<svg width="254pt" height="392pt"
     viewBox="0.00 0.00 253.50 392.00" xmlns="http://www.w3.org/2000/svg">
<g id="graph0" class="graph" transform="scale(1 1) rotate(0) translate(4 388)">
<title>FileUploadAndCheckGraph</title>
<polygon fill="white" stroke="none" points="-4,4 -4,-388 249.5,-388 249.5,4 -4,4"/>
<!-- Start -->
<!-- Commits a new: DemoState -->
<g id="node1" class="node"><title>Start</title>
<polygon fill="none" stroke="black" points="149.5,-384 95.5,-384 95.5,-348 149.5,-348 149.5,-384"/>
<text text-anchor="middle" x="122.5" y="-362.3" font-family="Times,serif" font-size="14.00">Start</text>
</g>
<!-- Open -->
<g id="node2" class="node"><title>Open</title>
<polygon fill="none" stroke="black" points="213.5,-297 31.5,-297 31.5,-261 213.5,-261 213.5,-297"/>
<text text-anchor="middle" x="122.5" y="-275.3" font-family="Times,serif" font-size="14.00">Updates: DemoState::received</text>
</g>
<!-- Start&#45;&gt;Open -->
<g id="edge1" class="edge"><title>Start&#45;&gt;Open</title>
<path fill="none" stroke="black" d="M122.5,-347.799C122.5,-336.163 122.5,-320.548 122.5,-307.237"/>
<polygon fill="black" stroke="black" points="126,-307.175 122.5,-297.175 119,-307.175 126,-307.175"/>
<text text-anchor="middle" x="143" y="-318.8" font-family="Times,serif" font-size="14.00"> &#160;&#160;Open</text>
</g>
<!-- FileAttached -->
<g id="node3" class="node"><title>FileAttached</title>
<polygon fill="none" stroke="black" points="237.5,-210 7.5,-210 7.5,-174 237.5,-174 237.5,-210"/>
<text text-anchor="middle" x="122.5" y="-188.3" font-family="Times,serif" font-size="14.00">Attaches file to: DemoState::document</text>
</g>
<!-- Open&#45;&gt;FileAttached -->
<g id="edge2" class="edge"><title>Open&#45;&gt;FileAttached</title>
<path fill="none" stroke="black" d="M122.5,-260.799C122.5,-249.163 122.5,-233.548 122.5,-220.237"/>
<polygon fill="black" stroke="black" points="126,-220.175 122.5,-210.175 119,-220.175 126,-220.175"/>
<text text-anchor="middle" x="163.5" y="-231.8" font-family="Times,serif" font-size="14.00"> &#160;&#160;FileAttached</text>
</g>
<!-- DocumentReviewed -->
<g id="node4" class="node"><title>DocumentReviewed</title>
<polygon fill="none" stroke="black" points="245,-123 0,-123 0,-87 245,-87 245,-123"/>
<text text-anchor="middle" x="122.5" y="-101.3" font-family="Times,serif" font-size="14.00">Updates: DemoState::documentReviewed</text>
</g>
<!-- FileAttached&#45;&gt;DocumentReviewed -->
<g id="edge3" class="edge"><title>FileAttached&#45;&gt;DocumentReviewed</title>
<path fill="none" stroke="black" d="M122.5,-173.799C122.5,-162.163 122.5,-146.548 122.5,-133.237"/>
<polygon fill="black" stroke="black" points="126,-133.175 122.5,-123.175 119,-133.175 126,-133.175"/>
<text text-anchor="middle" x="184" y="-144.8" font-family="Times,serif" font-size="14.00"> &#160;&#160;DocumentReviewed</text>
</g>
<!-- DocumentPublished -->
<g id="node5" class="node"><title>DocumentPublished</title>
<polygon fill="none" stroke="black" points="244.5,-36 0.5,-36 0.5,-0 244.5,-0 244.5,-36"/>
<text text-anchor="middle" x="122.5" y="-14.3" font-family="Times,serif" font-size="14.00">Updates: DemoState::documentPublished</text>
</g>
<!-- DocumentReviewed&#45;&gt;DocumentPublished -->
<g id="edge4" class="edge"><title>DocumentReviewed&#45;&gt;DocumentPublished</title>
<path fill="none" stroke="black" d="M122.5,-86.799C122.5,-75.1626 122.5,-59.5479 122.5,-46.2368"/>
<polygon fill="black" stroke="black" points="126,-46.1754 122.5,-36.1754 119,-46.1755 126,-46.1754"/>
<text text-anchor="middle" x="183.5" y="-57.8" font-family="Times,serif" font-size="14.00"> &#160;&#160;DocumentPublished</text>
</g>
</g>
</svg>
